<?xml version="1.0" standalone="no"?>
<!DOCTYPE svg PUBLIC "-//W3C//DTD SVG 20010904//EN"
 "http://www.w3.org/TR/2001/REC-SVG-20010904/DTD/svg10.dtd">
<svg version="1.0" xmlns="http://www.w3.org/2000/svg"
 width="256.000000pt" height="256.000000pt" viewBox="0 0 256.000000 256.000000"
 preserveAspectRatio="xMidYMid meet">
<metadata>
Created by potrace 1.11, written by Peter Selinger 2001-2013
</metadata>
<g transform="translate(0.000000,256.000000) scale(0.100000,-0.100000)"
fill="#000000" stroke="none">
<path d="M1149 2425 c-2 -1 -24 -6 -49 -9 -109 -15 -215 -49 -329 -105 -113
-56 -193 -113 -293 -209 -175 -169 -284 -373 -333 -627 -13 -70 -14 -342 -1
-395 3 -14 9 -38 12 -55 11 -63 56 -184 100 -272 146 -287 404 -497 719 -585
38 -11 78 -28 88 -39 10 -10 23 -20 30 -20 7 -1 19 -2 27 -3 8 -1 27 4 41 11
21 10 28 9 41 -3 23 -24 82 -29 119 -10 30 15 34 15 50 0 17 -16 72 -25 146
-25 38 0 86 23 107 52 9 13 21 19 30 16 23 -9 56 6 93 43 l32 32 32 -23 c33
-23 109 -36 152 -25 13 3 40 17 60 30 l36 25 38 -20 c42 -22 101 -19 141 7 33
22 62 74 62 111 0 40 -43 139 -70 163 -28 24 -27 94 2 140 138 220 194 400
196 636 1 165 -22 295 -77 434 -152 381 -487 649 -901 719 -51 9 -293 14 -301
6z"/>
</g>
</svg>
